<?xml version="1.0" encoding="UTF-8"?>
<svg width="1280" height="640" viewBox="0 0 1280 640" xmlns="http://www.w3.org/2000/svg">
  <!-- Background -->
  <rect width="1280" height="640" fill="#f5f5f5"/>

  <!-- HTW Green accent bars -->
  <rect x="0" y="0" width="1280" height="8" fill="#80C341"/>
  <rect x="0" y="632" width="1280" height="8" fill="#80C341"/>

  <!-- Main title at top -->
  <g transform="translate(640, 80)">
    <text x="0" y="0" font-family="Georgia, serif" font-size="82" font-weight="bold" fill="#2d2d2d" text-anchor="middle">
      Bachelorarbeit
    </text>
  </g>

  <!-- Subtitle -->
  <g transform="translate(640, 160)">
    <text x="0" y="0" font-family="Arial, sans-serif" font-size="30" fill="#4a4a4a" text-anchor="middle">
      Konzeption und prototypische Umsetzung
    </text>
    <text x="0" y="38" font-family="Arial, sans-serif" font-size="30" fill="#4a4a4a" text-anchor="middle">
      einer webbasierten WYSIWYG-Anwendung
    </text>
    <text x="0" y="76" font-family="Arial, sans-serif" font-size="30" fill="#4a4a4a" text-anchor="middle">
      zur Datenpflege
    </text>
  </g>

  <!-- HTW Berlin logo (centered between title and author) -->
  <g transform="translate(396, 300)">
    <g transform="scale(1.4)">
      <rect x="79.709" y="16.494" width="5.314" height="10.63" fill="#80C341"/>
      <rect x="85.023" y="27.124" width="5.316" height="5.315" fill="#80C341"/>
      <path d="M42.504,11.179L47.819,11.179L47.819,16.494L53.134,16.494L53.134,21.809L47.819,21.809L47.819,27.124L53.134,27.124L53.134,32.439L47.819,32.439C44.883,32.439 42.504,30.059 42.504,27.124C42.525,27.126 42.504,11.179 42.504,11.179Z" fill="#80C341"/>
      <path d="M58.448,16.494L63.764,16.494L63.764,27.124L69.079,27.124L69.079,16.494L74.393,16.494L74.393,27.124L79.709,27.124L79.709,32.439L63.764,32.439C60.828,32.439 58.448,30.059 58.448,27.124L58.448,16.494Z" fill="#80C341"/>
      <rect x="21.244" y="21.809" width="5.315" height="10.63" fill="#80C341"/>
      <rect x="21.244" y="11.179" width="5.315" height="5.315" fill="#80C341"/>
      <path d="M26.556,16.494L31.871,16.493C34.807,16.493 37.189,18.874 37.189,21.809L37.189,32.439L31.874,32.439L31.874,21.809L26.559,21.809L26.556,16.494Z" fill="#80C341"/>

      <!-- HTW Text - University name -->
      <text x="100.99" y="19.5" font-family="Arial, sans-serif" font-size="1.2" fill="#231F20">Hochschule für Technik</text>
      <text x="100.99" y="20.7" font-family="Arial, sans-serif" font-size="1.2" fill="#231F20">und Wirtschaft Berlin</text>
      <text x="100.99" y="22.7" font-family="Arial, sans-serif" font-size="1.2" fill="#80C341">University of Applied Sciences</text>
    </g>
  </g>

  <!-- Bottom section - Author -->
  <g transform="translate(640, 520)">
    <text x="0" y="0" font-family="Arial, sans-serif" font-size="32" fill="#666666" text-anchor="middle">
      Benjamin Schuch
    </text>
    <text x="0" y="40" font-family="Arial, sans-serif" font-size="24" fill="#888888" text-anchor="middle">
      2016
    </text>
  </g>

  <!-- Decorative element (bottom right) -->
  <g transform="translate(1100, 480)">
    <circle cx="40" cy="40" r="60" fill="#80C341" opacity="0.08"/>
    <circle cx="40" cy="40" r="40" fill="#80C341" opacity="0.12"/>
    <circle cx="40" cy="40" r="20" fill="#80C341" opacity="0.16"/>
  </g>
</svg>
